<?xml version="1.0" standalone="no"?>
<!DOCTYPE svg PUBLIC "-//W3C//DTD SVG 20010904//EN"
 "http://www.w3.org/TR/2001/REC-SVG-20010904/DTD/svg10.dtd">
<svg version="1.0" xmlns="http://www.w3.org/2000/svg"
 width="4500.000000pt" height="4500.000000pt" viewBox="0 0 4500.000000 4500.000000"
 preserveAspectRatio="xMidYMid meet">

<g transform="translate(0.000000,4500.000000) scale(0.100000,-0.100000)"
fill="currentColor" stroke="none">
<path d="M37050 35430 c-1743 -71 -3259 -368 -4782 -936 -206 -77 -606 -238
-726 -292 -42 -19 -43 -19 -140 4 -171 40 -838 181 -1127 238 -3353 659 -6806
910 -10060 731 -4294 -237 -8116 -1233 -11128 -2902 -2755 -1526 -4845 -3594
-6242 -6178 -664 -1227 -1070 -2383 -1229 -3495 -184 -1286 -17 -2479 488
-3488 685 -1367 1963 -2328 3586 -2696 490 -111 931 -159 1480 -159 667 -1
1245 71 1918 238 1373 340 2717 1028 3957 2024 592 476 1188 1049 1716 1651
675 771 1329 1682 1814 2530 942 1645 1321 3142 1104 4360 -147 832 -572 1516
-1198 1931 -291 194 -610 318 -937 365 -145 21 -559 24 -734 5 -339 -35 -638
-113 -885 -230 -482 -228 -820 -637 -925 -1120 -92 -421 -1 -830 233 -1047
130 -121 292 -208 484 -261 89 -25 113 -28 263 -27 151 0 173 2 255 28 225 68
391 203 524 425 52 86 104 229 120 331 32 193 -17 424 -126 599 -128 206 -341
359 -579 417 -109 27 -304 23 -423 -8 l-95 -25 30 24 c74 62 251 172 377 233
337 166 685 239 1077 227 469 -15 812 -136 1165 -412 91 -71 278 -260 346
-350 274 -358 445 -802 516 -1330 24 -185 24 -680 0 -890 -110 -929 -451
-1868 -1073 -2947 -420 -729 -1028 -1582 -1649 -2313 -1810 -2132 -3870 -3460
-5855 -3775 -659 -104 -1349 -79 -1925 70 -1431 369 -2395 1461 -2653 3005
-58 343 -67 469 -67 920 0 447 9 573 66 970 230 1607 1036 3461 2321 5338
1048 1531 2142 2777 3347 3811 2463 2114 5354 3276 8731 3510 498 35 680 41
1345 41 689 0 904 -7 1480 -46 2243 -151 4782 -652 7570 -1495 176 -53 335
-101 353 -106 l34 -9 -249 -167 c-2405 -1619 -4750 -4031 -7034 -7237 -596
-836 -1070 -1548 -1789 -2685 -808 -1279 -1369 -2144 -2000 -3090 -1731 -2590
-3178 -4483 -4549 -5950 -367 -393 -1000 -1009 -1376 -1341 -1529 -1347 -3028
-2139 -4480 -2369 -361 -57 -623 -74 -1037 -67 -523 8 -939 64 -1453 194
-1229 310 -2133 969 -2566 1868 -58 121 -148 369 -138 379 3 3 41 -3 85 -15
114 -30 267 -36 392 -15 358 60 645 265 781 558 62 133 76 200 76 373 0 193
-27 311 -108 470 -54 105 -196 249 -312 316 -425 246 -975 198 -1312 -115
-287 -265 -384 -680 -293 -1245 274 -1692 1978 -2962 4275 -3185 394 -39 943
-45 1335 -16 1911 143 3892 882 5860 2187 1124 746 2221 1664 3415 2858 1766
1767 3274 3703 4877 6263 504 803 860 1399 1838 3067 793 1352 1158 1963 1580
2640 1093 1753 2085 3117 3150 4335 561 640 1038 1084 1743 1624 l128 98 442
-152 c692 -238 1204 -418 1693 -595 545 -198 849 -304 1219 -424 1635 -530
3171 -856 4545 -966 660 -52 1351 -52 1925 0 1298 119 2346 502 2966 1082 384
359 588 739 630 1177 47 485 -171 995 -602 1411 -599 578 -1568 970 -2783
1125 -281 36 -873 81 -1441 110 -267 14 -1318 20 -1575 10z m1955 -530 c127
-5 300 -14 385 -20 1254 -83 2344 -418 3048 -939 150 -110 372 -329 450 -443
71 -104 138 -246 163 -347 31 -123 24 -276 -18 -382 -39 -99 -92 -179 -175
-261 -457 -453 -1596 -611 -3143 -437 -1373 154 -3006 549 -4965 1199 -637
212 -1168 371 -1950 585 l-375 103 40 16 c80 34 474 175 640 229 727 238 1550
427 2360 541 663 94 1266 144 2070 170 193 6 1243 -3 1470 -14z"/>
</g>
</svg>
